<svg width="300" height="300" viewBox="0 0 300 300" fill="none" xmlns="http://www.w3.org/2000/svg">
<g id="ic:baseline-lock">
<path id="Vector" d="M52.5 23.3337H49.5833V17.5003C49.5833 9.45033 43.05 2.91699 35 2.91699C26.95 2.91699 20.4166 9.45033 20.4166 17.5003V23.3337H17.5C14.2916 23.3337 11.6666 25.9587 11.6666 29.167V58.3337C11.6666 61.542 14.2916 64.167 17.5 64.167H52.5C55.7083 64.167 58.3333 61.542 58.3333 58.3337V29.167C58.3333 25.9587 55.7083 23.3337 52.5 23.3337ZM35 49.5837C31.7916 49.5837 29.1666 46.9587 29.1666 43.7503C29.1666 40.542 31.7916 37.917 35 37.917C38.2083 37.917 40.8333 40.542 40.8333 43.7503C40.8333 46.9587 38.2083 49.5837 35 49.5837ZM44.0416 23.3337H25.9583V17.5003C25.9583 12.5128 30.0125 8.45866 35 8.45866C39.9875 8.45866 44.0416 12.5128 44.0416 17.5003V23.3337Z" fill="black"/>
</g>
</svg>
